<?xml version="1.0" encoding="utf-8"?>
<!-- Generator: Adobe Illustrator 26.5.3, SVG Export Plug-In . SVG Version: 6.00 Build 0)  -->
<svg version="1.1" id="Layer_1" xmlns="http://www.w3.org/2000/svg" xmlns:xlink="http://www.w3.org/1999/xlink" x="0px" y="0px"
	 viewBox="0 0 48 48" style="enable-background:new 0 0 48 48;" xml:space="preserve">
<style type="text/css">
	.st0{fill:#15223B;}
	.st1{fill:#F2F2F2;}
</style>
<g>
	<rect x="1" y="1" class="st0" width="46" height="46"/>
	<path class="st1" d="M46,2v44H2V2H46 M48,0H0v48h48V0L48,0z"/>
</g>
<g>
	<path class="st1" d="M19.2,10.3c3.9,0,7.2,1.3,9.8,3.9c2.6,2.6,4,5.8,4,9.7c0,3.8-1.3,7-3.9,9.6s-5.8,4-9.6,4
		c-3.8,0-7.1-1.3-9.7-3.9s-4-5.8-4-9.5c0-2.5,0.6-4.8,1.8-6.9c1.2-2.1,2.8-3.8,4.9-5C14.5,10.9,16.8,10.3,19.2,10.3z M19.3,12.8
		c-1.9,0-3.7,0.5-5.4,1.5c-1.7,1-3.1,2.3-4,4c-1,1.7-1.4,3.6-1.4,5.6c0,3.1,1.1,5.7,3.2,7.8c2.1,2.1,4.7,3.2,7.7,3.2
		c2,0,3.9-0.5,5.6-1.5c1.7-1,3-2.3,4-4c1-1.7,1.4-3.6,1.4-5.6c0-2.1-0.5-3.9-1.4-5.6c-1-1.7-2.3-3-4-4
		C23.1,13.3,21.3,12.8,19.3,12.8z"/>
</g>
<g>
	<path class="st1" d="M41,15.3l-2,1.9c-1.4-1.4-3-2.5-4.7-3.2s-3.4-1.1-5-1.1c-2,0-4,0.5-5.8,1.5s-3.3,2.3-4.3,4.1s-1.5,3.5-1.5,5.4
		c0,1.9,0.5,3.8,1.6,5.5s2.5,3.1,4.3,4.1s3.9,1.5,6,1.5c2.7,0,4.9-0.8,6.8-2.2s2.9-3.4,3.3-5.8h-8.2v-2.5h11.1c0,4-1.2,7.2-3.6,9.5
		s-5.5,3.5-9.4,3.5c-4.8,0-8.6-1.6-11.4-4.9C16,30.1,15,27.2,15,23.9c0-2.4,0.6-4.7,1.8-6.8s2.9-3.8,5.1-4.9s4.6-1.8,7.3-1.8
		c2.2,0,4.3,0.4,6.2,1.2S39.2,13.5,41,15.3z"/>
</g>
</svg>
