<svg data-name="Layer 1" viewBox="0 0 512 512" xmlns="http://www.w3.org/2000/svg"><path d="M256 0C114.615 0 0 114.615 0 256s114.615 256 256 256 256-114.615 256-256S397.385 0 256 0Zm-72.565 382.667h-57.054V203.653h57.054Zm-28.527-202.459a32.1 32.1 0 1 1 32.1-32.1 32.1 32.1 0 0 1-32.1 32.1ZM389.2 382.667h-56v-97.882c0-4.973.785-37.949-27.219-37.949a30.948 30.948 0 0 0-25.681 12.576 39.134 39.134 0 0 0-7.818 23.8v99.451H216.55v-179.01h53.216v25.124c12.737-19.541 28.789-26.694 44.578-29.573 28.027-5.11 74.851 11.952 74.851 62.9Z" fill="#15223b" class="fill-000000"></path></svg>